<svg aria-hidden="true" style="position: absolute; width: 0; height: 0; overflow: hidden;" version="1.1" xmlns="http://www.w3.org/2000/svg" xmlns:xlink="http://www.w3.org/1999/xlink">
<defs>
<symbol id="icon-go-home-btn" viewBox="0 0 31 32">
<path fill="none" stroke="#fff" style="stroke: var(--color1, #fff)" stroke-linejoin="round" stroke-linecap="round" stroke-miterlimit="4" stroke-width="1.92" d="M28.431 12.717l-11.947-10.453c-0.643-0.563-1.604-0.563-2.248 0l-11.947 10.453c-0.37 0.324-0.583 0.792-0.583 1.284v14.586c0 0.942 0.764 1.707 1.707 1.707h6.827c0.943 0 1.707-0.764 1.707-1.707v-6.827c0-0.943 0.764-1.707 1.707-1.707h3.413c0.943 0 1.707 0.764 1.707 1.707v6.827c0 0.942 0.764 1.707 1.707 1.707h6.827c0.943 0 1.707-0.764 1.707-1.707v-14.586c0-0.492-0.212-0.96-0.583-1.284z"></path>
</symbol>

<symbol id="icon-burger-btn" viewBox="0 0 37 32">
<path fill="#2193ec" style="fill: var(--color2, #2193ec)"  d="M34.389 4.718h-31.855c-0.563 0-1.103-0.238-1.502-0.661s-0.622-0.997-0.622-1.596c0-0.598 0.224-1.172 0.622-1.596s0.938-0.661 1.502-0.661h31.855c0.563 0 1.103 0.238 1.502 0.661s0.622 0.997 0.622 1.596c0 0.598-0.224 1.172-0.622 1.596s-0.938 0.661-1.502 0.661z"></path>
<path fill="#2193ec" style="fill: var(--color2, #2193ec)" d="M34.389 18.256h-31.855c-0.563 0-1.103-0.238-1.502-0.661s-0.622-0.997-0.622-1.596c0-0.598 0.224-1.172 0.622-1.595s0.938-0.661 1.502-0.661h31.855c0.563 0 1.103 0.238 1.502 0.661s0.622 0.997 0.622 1.595c0 0.599-0.224 1.172-0.622 1.596s-0.938 0.661-1.502 0.661z"></path>
<path fill="#2193ec" style="fill: var(--color2, #2193ec)" d="M34.389 31.795h-31.855c-0.563 0-1.103-0.238-1.502-0.661s-0.622-0.997-0.622-1.596c0-0.598 0.224-1.172 0.622-1.595s0.938-0.661 1.502-0.661h31.855c0.563 0 1.103 0.238 1.502 0.661s0.622 0.997 0.622 1.595c0 0.599-0.224 1.172-0.622 1.596s-0.938 0.661-1.502 0.661z"></path>
</symbol>

<symbol id="icon-close-btn" viewBox="0 0 32 32">
<path d="M31.479 3.035c0.694-0.694 0.694-1.82 0-2.514s-1.82-0.694-2.514 0l-12.965 12.965-12.965-12.965c-0.694-0.694-1.82-0.694-2.514 0s-0.694 1.82 0 2.514l12.965 12.965-12.965 12.965c-0.694 0.694-0.694 1.82 0 2.514s1.82 0.694 2.514 0l12.965-12.965 12.965 12.965c0.694 0.694 1.82 0.694 2.514 0s0.694-1.82 0-2.514l-12.965-12.965 12.965-12.965z"></path>
</symbol>
</defs>
</svg>
